<svg width="10" height="12" viewBox="0 0 10 12" fill="none" xmlns="http://www.w3.org/2000/svg">
<path id="Vector" d="M6.4 2.3V2.8H6.9H8.05C8.40636 2.8 8.7 3.09364 8.7 3.45V10.35C8.7 10.7064 8.40636 11 8.05 11H1.15C0.793643 11 0.5 10.7064 0.5 10.35V3.45C0.5 3.09364 0.793642 2.8 1.15 2.8H2.3H2.8V2.3C2.8 1.30539 3.60539 0.5 4.6 0.5C5.59461 0.5 6.4 1.30539 6.4 2.3ZM2.3 2.95H1.8V3.45V4.6C1.8 5.19239 2.28261 5.675 2.875 5.675C3.46739 5.675 3.95 5.19239 3.95 4.6V3.45V2.95H3.45H2.3ZM5.75 2.8H6.25V2.3C6.25 1.39136 5.50864 0.65 4.6 0.65C3.69136 0.65 2.95 1.39136 2.95 2.3V2.8H3.45H5.75ZM5.75 2.95H5.25V3.45V4.6C5.25 5.19239 5.73261 5.675 6.325 5.675C6.91739 5.675 7.4 5.19239 7.4 4.6V3.45V2.95H6.9H5.75Z" stroke="#434343"/>
</svg>
