<svg width="33" height="29" viewBox="0 0 33 29" fill="none" xmlns="http://www.w3.org/2000/svg">
<path id="Vector" d="M23.1136 18.2138H21.663L21.1488 17.7668C22.9484 15.8792 24.0318 13.4286 24.0318 10.7627C24.0318 4.81839 18.6882 0 12.096 0C5.50372 0 0.160156 4.81839 0.160156 10.7627C0.160156 16.7071 5.50372 21.5254 12.096 21.5254C15.0524 21.5254 17.7701 20.5485 19.8634 18.9258L20.3592 19.3895V20.6975L29.5406 28.96L32.2766 26.4929L23.1136 18.2138ZM12.096 18.2138C7.52363 18.2138 3.83271 14.8857 3.83271 10.7627C3.83271 6.63977 7.52363 3.31161 12.096 3.31161C16.6683 3.31161 20.3592 6.63977 20.3592 10.7627C20.3592 14.8857 16.6683 18.2138 12.096 18.2138Z" fill="#D9D9D9"/>
</svg>
